<svg width="296" height="650" viewBox="0 0 296 650" fill="none" xmlns="http://www.w3.org/2000/svg">
<path d="M24.5649 236.362L147.117 165.606L269.67 236.362V377.873L147.117 448.629L24.5649 377.873V236.362Z" stroke="#202020" stroke-width="4.33002"/>
<path d="M24.5649 236.362L147.117 165.606L269.67 236.362V377.873L147.117 448.629L24.5649 377.873V236.362Z" stroke="black" stroke-opacity="0.2" stroke-width="4.33002"/>
<path d="M271.874 306.824L147.119 378.617L22.363 306.824" stroke="#202020" stroke-width="4.33002"/>
<path d="M271.874 306.824L147.119 378.617L22.363 306.824" stroke="black" stroke-opacity="0.2" stroke-width="4.33002"/>
<path d="M271.874 342.719L209.496 378.616L178.307 396.565M22.363 342.719L84.7409 378.616L115.93 396.565" stroke="#202020" stroke-width="4.33002"/>
<path d="M271.874 342.719L209.496 378.616L178.307 396.565M22.363 342.719L84.7409 378.616L115.93 396.565" stroke="black" stroke-opacity="0.2" stroke-width="4.33002"/>
<path d="M271.874 270.926L147.119 342.719L22.363 270.926" stroke="#202020" stroke-width="4.33002"/>
<path d="M271.874 270.926L147.119 342.719L22.363 270.926" stroke="black" stroke-opacity="0.2" stroke-width="4.33002"/>
<path d="M271.874 235.029L147.119 306.823L22.363 235.029" stroke="#202020" stroke-width="4.33002"/>
<path d="M271.874 235.029L147.119 306.823L22.363 235.029" stroke="black" stroke-opacity="0.2" stroke-width="4.33002"/>
<path d="M238.623 218.266L147.116 270.926L55.6094 218.266" stroke="#202020" stroke-width="4.33002"/>
<path d="M238.623 218.266L147.116 270.926L55.6094 218.266" stroke="black" stroke-opacity="0.2" stroke-width="4.33002"/>
<path d="M178.452 216.998L147.117 235.031L115.781 216.998" stroke="#202020" stroke-width="4.33002"/>
<path d="M178.452 216.998L147.117 235.031L115.781 216.998" stroke="black" stroke-opacity="0.2" stroke-width="4.33002"/>
<path d="M209.496 235.029L147.118 199.133L84.7402 235.029" stroke="#202020" stroke-width="4.33002"/>
<path d="M209.496 235.029L147.118 199.133L84.7402 235.029" stroke="black" stroke-opacity="0.2" stroke-width="4.33002"/>
<path d="M22.3611 378.617L53.55 360.668M271.871 378.617L240.684 360.668" stroke="#202020" stroke-width="4.33002"/>
<path d="M22.3611 378.617L53.55 360.668M271.871 378.617L240.684 360.668" stroke="black" stroke-opacity="0.2" stroke-width="4.33002"/>
<path d="M84.7398 378.616L53.5508 396.565M209.495 378.616L240.684 396.565" stroke="#202020" stroke-width="4.33002"/>
<path d="M84.7398 378.616L53.5508 396.565M209.495 378.616L240.684 396.565" stroke="black" stroke-opacity="0.2" stroke-width="4.33002"/>
<path d="M84.7402 414.513L147.118 378.616L209.496 414.513" stroke="#202020" stroke-width="4.33002"/>
<path d="M84.7402 414.513L147.118 378.616L209.496 414.513" stroke="black" stroke-opacity="0.2" stroke-width="4.33002"/>
<path d="M115.928 432.461L147.117 414.513L178.305 432.461" stroke="#202020" stroke-width="4.33002"/>
<path d="M115.928 432.461L147.117 414.513L178.305 432.461" stroke="black" stroke-opacity="0.2" stroke-width="4.33002"/>
<line x1="149" y1="34" x2="149" y2="600" stroke="#202020" stroke-width="4"/>
<line x1="118" y1="71" x2="118" y2="650" stroke="#202020" stroke-width="4"/>
<line x1="180" y1="-5.09615e-09" x2="180" y2="574" stroke="#202020" stroke-width="4"/>
</svg>
